Coordinates
version=1
nRows=12
nColumns=24
inDegrees=yes

Units are S.I. units (second, meters, Newtons, ...)
Angles are in degrees.

endheader
time	pelvis_tilt	pelvis_list	pelvis_rotation	pelvis_tx	pelvis_ty	pelvis_tz	hip_flexion_r	hip_adduction_r	hip_rotation_r	knee_angle_r	ankle_angle_r	subtalar_angle_r	mtp_angle_r	hip_flexion_l	hip_adduction_l	hip_rotation_l	knee_angle_l	ankle_angle_l	subtalar_angle_l	mtp_angle_l	lumbar_extension	lumbar_bending	lumbar_rotation
      1.40416667	     -2.98442540	      0.35124557	    -12.71080527	      0.99514785	      0.98294258	      0.27190237	    -18.31686146	     -0.62890593	      9.32237480	     -4.40525916	      8.77394490	     -5.43045154	     10.41086379	     25.37634576	     -3.97410460	    -13.89838083	      6.49563205	      6.10367214	     -7.40676935	      5.17884694	     -0.59958849	     -0.04004932	     12.02081402
      1.40833333	     -2.97587664	      0.41799042	    -12.80433234	      1.00127430	      0.98245156	      0.27163491	    -18.47034406	     -0.80362926	      9.32158072	     -4.76800625	      8.59053803	     -5.44012648	     10.46484444	     25.36964284	     -3.92130471	    -13.94130278	      6.18066245	      6.24137332	     -7.58616113	      5.17228971	     -0.55731785	     -0.14060431	     12.02219758
      1.41250000	     -2.91075952	      0.49379422	    -12.86806392	      1.00745904	      0.98203537	      0.27133283	    -18.68283929	     -0.99404906	      9.23090996	     -5.12307694	      8.34791538	     -5.45874245	     16.26409650	     25.28813473	     -3.83121900	    -13.81773978	      5.84957739	      6.33932819	     -7.94176603	      4.55960363	     -0.56736782	     -0.29373397	     12.10266482
      1.41666667	     -2.89104715	      0.59419162	    -12.94531507	      1.01370176	      0.98160216	      0.27104779	    -18.82945603	     -1.20061175	      9.17167595	     -5.51074504	      8.12332356	     -5.38353320	     16.28701028	     25.27280861	     -3.73515082	    -13.79153023	      5.43416984	      6.43527624	     -8.10801073	      4.56143701	     -0.51316016	     -0.45905093	     12.22708128
      1.42083333	     -2.84994868	      0.69802653	    -13.02299570	      1.01996637	      0.98122477	      0.27074868	    -18.97849539	     -1.41285255	      9.11495422	     -5.93758035	      7.89957027	     -5.37363705	     16.30785401	     25.23355388	     -3.62822661	    -13.75284216	      4.98349866	      6.48848745	     -8.30853242	      4.56484902	     -0.47648070	     -0.62262979	     12.29159853
      1.42500000	     -2.77612562	      0.82321581	    -13.08744511	      1.02629574	      0.98090115	      0.27041352	    -19.14494058	     -1.65232873	      8.98651567	     -6.39407600	      7.69318100	     -5.22220071	     16.43299335	     25.13440756	     -3.47672314	    -13.60176179	      4.56395913	      6.41405086	     -8.67402959	      4.58492476	     -0.49171115	     -0.82728673	     12.49124813
      1.42916667	     -2.73965958	      0.96170776	    -13.15757297	      1.03270565	      0.98056783	      0.27009780	    -19.26570072	     -1.89386275	      8.91592882	     -6.85868490	      7.41847914	     -5.24631072	     16.47159113	     25.09911484	     -3.32763977	    -13.53078402	      4.05660744	      6.39373656	     -8.85514298	      4.59248902	     -0.42601024	     -1.03379728	     12.52900495
      1.43333333	     -2.67225580	      1.11629203	    -13.22629019	      1.03911785	      0.98028939	      0.26974966	    -19.37895265	     -2.15968596	      8.76803483	     -7.39380557	      7.18113601	     -5.09890958	     16.76155641	     24.98313143	     -3.13772235	    -13.28637738	      3.63972672	      6.18778595	     -9.35250049	      4.65132960	     -0.41491548	     -1.27056607	     12.70994100
      1.43750000	     -2.62259295	      1.28645384	    -13.28534095	      1.04561332	      0.98001499	      0.26938070	    -19.46802466	     -2.43402198	      8.61769501	     -7.93422726	      6.88645285	     -5.01186215	     17.22927195	     24.90526365	     -2.93265467	    -13.07965158	      3.16824143	      5.96516274	     -9.76525018	      4.75765959	     -0.35980870	     -1.51308947	     12.83159247
      1.44166667	     -2.58654713	      1.46436995	    -13.33770312	      1.05213149	      0.97976146	      0.26902122	    -19.54851292	     -2.70583628	      8.53944736	     -8.44764880	      6.46088172	     -5.14962045	     20.71775581	     24.85119680	     -2.72035226	    -12.88915969	      2.66983612	      5.69390798	    -10.16185562	      5.58592567	     -0.28159226	     -1.76907733	     12.77140299
      1.44583333	     -2.53272363	      1.66943471	    -13.36677338	      1.05870431	      0.97954215	      0.26860554	    -19.61006667	     -3.00310588	      8.34419914	     -9.03915777	      6.11471296	     -5.06984345	     20.75515748	     24.80768123	     -2.47073934	    -12.78276154	      2.11539876	      5.45491376	    -10.27658859	      5.60164724	     -0.21095858	     -2.06660093	     12.92760146
      1.45000000	     -2.48263867	      1.87596296	    -13.43250918	      1.06525004	      0.97936492	      0.26817684	    -19.60320153	     -3.31450493	      8.13402197	     -9.74301491	      5.82321267	     -4.87816136	     20.89389466	     24.73309447	     -2.21903243	    -12.59118611	      1.62482346	      5.04846008	    -10.70210435	      5.64909288	     -0.14608223	     -2.33273125	     13.11096389
